<svg xmlns="http://www.w3.org/2000/svg" viewBox="0 0 32 32">
  <!-- Background circle -->
  <circle cx="16" cy="16" r="15" fill="#0d1117" stroke="#00ff88" stroke-width="1.5"/>

  <!-- Soccer ball white base -->
  <circle cx="16" cy="16" r="11" fill="#f0f4ff"/>

  <!-- Center pentagon (black) -->
  <polygon points="16,9 19.8,11.8 18.4,16.2 13.6,16.2 12.2,11.8" fill="#0d1117"/>

  <!-- Surrounding pentagons (black) -->
  <!-- Top -->
  <polygon points="16,5.5 18.2,7.2 17.4,9 14.6,9 13.8,7.2" fill="#0d1117"/>
  <!-- Top right -->
  <polygon points="20.5,7.5 22.5,9.5 21.5,11.8 19.8,11.8 19,9.5" fill="#0d1117"/>
  <!-- Bottom right -->
  <polygon points="21.8,17 22.5,19.5 20.5,21 18.8,19.8 19.2,17.5" fill="#0d1117"/>
  <!-- Bottom -->
  <polygon points="16,22.5 18,21 18.4,18.5 13.6,18.5 14,21" fill="#0d1117"/>
  <!-- Bottom left -->
  <polygon points="10.2,17 12.8,17.5 13.2,19.8 11.5,21 9.5,19.5" fill="#0d1117"/>
  <!-- Top left -->
  <polygon points="11,9.5 13,9 14.2,11.8 12.5,11.8 10.5,9.5" fill="#0d1117"/>
</svg>
